<svg xmlns="http://www.w3.org/2000/svg" viewBox="0 0 107.56 107.56"><defs><style>.cls-1{fill:none;}</style></defs><g id="Layer_2" data-name="Layer 2"><g id="Layer_1-2" data-name="Layer 1"><path d="M89.76,42.71a5.84,5.84,0,0,0-3.23-5.24h0a5.86,5.86,0,0,0,0-10.47L58.75,13.11a11.21,11.21,0,0,0-9.94,0L21,27a5.85,5.85,0,0,0,0,10.47h0a5.85,5.85,0,0,0,0,10.47h0a5.85,5.85,0,0,0,0,10.47h0a5.85,5.85,0,0,0,0,10.47l15.93,8V72.49l-14.19-7.1a1.95,1.95,0,0,1,0-3.49l2.62-1.31L37,66.38V62l-7.21-3.61-4.36-2.18-2.62-1.31a1.95,1.95,0,0,1,0-3.49l2.62-1.31,6.11,3.06,4.36,2.18,1.1.55V51.55L35.86,51l-6.11-3.06-4.36-2.18-2.62-1.31a1.95,1.95,0,0,1,0-3.49l2.62-1.31,6.11,3.06,4.36,2.18,1.1.55,4,2V95.61L54.45,83.9l0,0,0,0L68,95.61V46.74l3.71-1.85.29-.15,4.07-2,6.1-3.06L84.78,41a1.95,1.95,0,0,1,0,3.49l-2.62,1.31L77.8,47.94,72,50.85v4.36l4.07-2,6.1-3.06,2.62,1.31a1.95,1.95,0,0,1,0,3.49l-2.62,1.31L77.8,58.41,72,61.32v4.36l10.17-5.09,2.62,1.31a1.95,1.95,0,0,1,0,3.49L72,71.79v4.36l14.54-7.27a5.86,5.86,0,0,0,0-10.47h0a5.86,5.86,0,0,0,0-10.47h0A5.82,5.82,0,0,0,89.76,42.71Zm-12-5.24L72,40.38l-.29.15L68,42.38l-.66.33-6.1,3L57,47.87l-.16.07a7.22,7.22,0,0,1-6.13,0l-.16-.07-4.22-2.11L41,43.09l-.77-.38L37,41.08l-1.1-.55-6.11-3.06-4.36-2.18L22.77,34a1.95,1.95,0,0,1,0-3.49L50.55,16.6a7.24,7.24,0,0,1,6.45,0L84.78,30.49a1.95,1.95,0,0,1,0,3.49l-2.62,1.31Z"/><rect class="cls-1" width="107.56" height="107.56"/></g></g></svg>
