<svg xmlns="http://www.w3.org/2000/svg" viewBox="0 0 48 48">
  <path fill="#FFC107" d="M43.611,20.083H42V20H24v8h11.303c-1.649,4.657-6.08,8-11.303,8c-6.627,0-12-5.373-12-12 s5.373-12,12-12c3.059,0,5.842,1.154,7.957,3.043l5.657-5.657C33.64,5.053,29.084,3,24,3C12.955,3,4,11.955,4,23 s8.955,20,20,20s20-8.955,20-20C44,22.659,43.862,21.35,43.611,20.083z"/>
  <path fill="#FF3D00" d="M6.306,14.691l6.571,4.818C14.39,16.108,18.836,13,24,13c3.059,0,5.842,1.154,7.957,3.043l5.657-5.657 C33.64,5.053,29.084,3,24,3C16.318,3,9.746,7.337,6.306,14.691z"/>
  <path fill="#4CAF50" d="M24,43c5.137,0,9.63-1.977,12.989-5.186l-6-4.909C29.017,34.271,26.66,35,24,35c-5.202,0-9.619-3.317-11.277-7.95 l-6.542,5.036C9.582,38.576,16.231,43,24,43z"/>
  <path fill="#1976D2" d="M43.611,20.083H42V20H24v8h11.303c-0.793,2.237-2.231,4.166-4.013,5.624c0.001-0.001,0.002-0.001,0.003-0.002 l6,4.909C36.971,39.188,44,34,44,23C44,22.659,43.862,21.35,43.611,20.083z"/>
</svg>

